<svg width="28" height="28" fill="none" xmlns="http://www.w3.org/2000/svg"><path d="M20.23 6.37a1.4 1.4 0 100 2.8 1.4 1.4 0 000-2.8zm5.367 2.823a8.855 8.855 0 00-.537-2.835 5.762 5.762 0 00-1.353-2.065 5.484 5.484 0 00-2.065-1.341 8.517 8.517 0 00-2.835-.549c-1.237-.07-1.634-.07-4.807-.07-3.173 0-3.57 0-4.807.07-.97.02-1.928.206-2.835.549a5.577 5.577 0 00-2.065 1.341 5.483 5.483 0 00-1.341 2.065 8.517 8.517 0 00-.549 2.835c-.07 1.237-.07 1.634-.07 4.807 0 3.173 0 3.57.07 4.807.02.969.206 1.928.549 2.835a5.484 5.484 0 001.341 2.065 5.577 5.577 0 002.065 1.341 8.517 8.517 0 002.835.549c1.237.07 1.634.07 4.807.07 3.173 0 3.57 0 4.807-.07a8.518 8.518 0 002.835-.549 5.484 5.484 0 002.065-1.341 5.659 5.659 0 001.353-2.065c.333-.91.514-1.867.537-2.835 0-1.237.07-1.634.07-4.807 0-3.173 0-3.57-.07-4.807zm-2.1 9.474a6.544 6.544 0 01-.397 2.17 3.571 3.571 0 01-.875 1.341 3.724 3.724 0 01-1.342.875 6.547 6.547 0 01-2.17.397c-1.166.058-1.598.07-4.666.07-3.069 0-3.5 0-4.667-.07a6.685 6.685 0 01-2.263-.35c-.484-.2-.92-.498-1.284-.875a3.5 3.5 0 01-.863-1.342 6.464 6.464 0 01-.467-2.216c0-1.167-.07-1.599-.07-4.667 0-3.068 0-3.5.07-4.667a6.463 6.463 0 01.409-2.216 3.5 3.5 0 01.921-1.284c.355-.4.793-.72 1.284-.933a6.685 6.685 0 012.216-.397c1.167 0 1.599-.07 4.667-.07 3.068 0 3.5 0 4.667.07.74.009 1.474.143 2.17.397a3.57 3.57 0 011.388.933c.382.359.681.797.875 1.284.26.71.393 1.46.397 2.216.058 1.167.07 1.599.07 4.667 0 3.068-.012 3.5-.07 4.667zM14 8.015A5.985 5.985 0 1019.997 14 5.973 5.973 0 0014 8.015zm0 9.87a3.885 3.885 0 110-7.77 3.885 3.885 0 010 7.77z" fill="#fff" opacity=".5"/></svg>