<svg width="64" height="64" fill="none" xmlns="http://www.w3.org/2000/svg"><mask id="mask0_30_817" style="mask-type:alpha" maskUnits="userSpaceOnUse" x="9" y="9" width="46" height="46"><path d="M9 32c0 12.703 10.297 23 23 23s23-10.297 23-23S44.703 9 32 9 9 19.297 9 32zm37.9 0c0 8.23-6.67 14.9-14.9 14.9S17.1 40.23 17.1 32 23.77 17.1 32 17.1 46.9 23.77 46.9 32z" fill="#C4C4C4"/></mask><g mask="url(#mask0_30_817)"><path transform="matrix(-1 0 0 1 58 6)" fill="url(#paint0_angular_30_817)" d="M0 0h52v52H0z"/><circle r="4" transform="matrix(-1 0 0 1 32 51)" fill="#AD475C"/></g><defs><radialGradient id="paint0_angular_30_817" cx="0" cy="0" r="1" gradientUnits="userSpaceOnUse" gradientTransform="matrix(0 26 -26 0 26 26)"><stop stop-color="#AD475C"/><stop offset="1" stop-color="#fff"/></radialGradient></defs></svg>